HIERARCHY
ROOT joint_0
{
	OFFSET 0.000000 0.000000 0.000000
	CHANNELS 6 Xposition Yposition Zposition Zrotation Yrotation Xrotation 
	JOINT joint_1
	{
		OFFSET 6.004005 -1.946999 100.587036
		CHANNELS 3 Zrotation Yrotation Xrotation
		JOINT joint_2
		{
			OFFSET -4.601006 -0.824997 91.925903
			CHANNELS 3 Zrotation Yrotation Xrotation
			JOINT joint_3
			{
				OFFSET -5.420998 -1.130005 91.774048
				CHANNELS 3 Zrotation Yrotation Xrotation
				JOINT joint_4
				{
					OFFSET 4.308998 -3.777992 123.473999
					CHANNELS 3 Zrotation Yrotation Xrotation
					JOINT joint_5
					{
						OFFSET 25.565002 -6.305008 79.437988
						CHANNELS 3 Zrotation Yrotation Xrotation
						End Site
						{
							OFFSET 0.000000 0.000000 0.000000
						}
					}
				}
				JOINT joint_6
				{
					OFFSET -1.750000 -28.655998 68.557983
					CHANNELS 3 Zrotation Yrotation Xrotation
					JOINT joint_7
					{
						OFFSET -17.692001 -116.544006 -17.244019
						CHANNELS 3 Zrotation Yrotation Xrotation
						JOINT joint_8
						{
							OFFSET 27.063004 -23.640991 -266.895020
							CHANNELS 3 Zrotation Yrotation Xrotation
							JOINT joint_9
							{
								OFFSET 40.722000 -15.761017 -232.488953
								CHANNELS 3 Zrotation Yrotation Xrotation
								End Site
								{
									OFFSET 0.000000 0.000000 0.000000
								}
							}
						}
					}
				}
				JOINT joint_10
				{
					OFFSET 6.593002 24.457001 69.892944
					CHANNELS 3 Zrotation Yrotation Xrotation
					JOINT joint_11
					{
						OFFSET 24.311996 114.920002 -19.872925
						CHANNELS 3 Zrotation Yrotation Xrotation
						JOINT joint_12
						{
							OFFSET 21.081001 15.319000 -268.037964
							CHANNELS 3 Zrotation Yrotation Xrotation
							JOINT joint_13
							{
								OFFSET 27.794006 -8.947001 -234.744080
								CHANNELS 3 Zrotation Yrotation Xrotation
								End Site
								{
									OFFSET 0.000000 0.000000 0.000000
								}
							}
						}
					}
				}
			}
		}
	}
	JOINT joint_14
	{
		OFFSET -6.627998 -80.520004 -98.790039
		CHANNELS 3 Zrotation Yrotation Xrotation
		JOINT joint_15
		{
			OFFSET -43.638000 -13.751999 -502.538971
			CHANNELS 3 Zrotation Yrotation Xrotation
			JOINT joint_16
			{
				OFFSET -39.532999 -9.912994 -398.071007
				CHANNELS 3 Zrotation Yrotation Xrotation
				JOINT joint_17
				{
					OFFSET 174.940004 -34.660995 -75.688002
					CHANNELS 3 Zrotation Yrotation Xrotation
					End Site
					{
						OFFSET 0.000000 0.000000 0.000000
					}
				}
			}
		}
	}
	JOINT joint_18
	{
		OFFSET 12.591003 79.842003 -98.765015
		CHANNELS 3 Zrotation Yrotation Xrotation
		JOINT joint_19
		{
			OFFSET -39.080002 -1.297001 -503.101013
			CHANNELS 3 Zrotation Yrotation Xrotation
			JOINT joint_20
			{
				OFFSET -51.570000 -0.514000 -396.815987
				CHANNELS 3 Zrotation Yrotation Xrotation
				JOINT joint_21
				{
					OFFSET 178.987999 -11.521999 -73.244003
					CHANNELS 3 Zrotation Yrotation Xrotation
					End Site
					{
						OFFSET 0.000000 0.000000 0.000000
					}
				}
			}
		}
	}
}
MOTION
Frames: 6
Frame Time: 0.016667
624.546021 -179.738007 1043.287964 1.620548 12.978504 -0.431176 4.744350 3.239377 -1.759203 4.546158 -4.180958 0.172248 4.417363 -0.644975 -1.006444 -0.383620 5.921901 2.039249 0.000000 0.000000 0.000000 10.249738 -10.877792 -4.254836 -4.732647 -6.737244 -18.314504 -0.722395 -41.863570 2.100786 0.000000 0.000000 0.000000 -1.912263 6.365427 6.956800 6.689200 4.400374 19.107436 3.507721 -12.465144 -6.326842 0.000000 0.000000 0.000000 -6.674244 7.016985 -0.056627 -8.186500 16.444919 -1.337514 -8.405350 15.811967 -0.400866 0.000000 0.000000 0.000000 -3.254592 -48.071698 0.073916 6.391067 33.485289 2.664954 4.414168 -9.279576 1.281634 0.000000 0.000000 0.000000 
657.716980 -179.266998 1037.129028 1.096569 12.591867 -0.898723 4.800883 2.822918 -1.944497 4.601877 -4.111437 0.330060 4.463614 -0.463228 -0.822594 -0.361869 5.339970 1.830711 0.000000 0.000000 0.000000 10.472349 -10.759509 -4.046935 -4.637547 -6.623651 -17.786179 -0.665894 -42.218172 2.161354 0.000000 0.000000 0.000000 -1.594990 6.866197 6.535788 6.715630 4.826952 19.093664 3.395511 -11.880476 -6.407386 0.000000 0.000000 0.000000 -6.723848 6.808391 -0.501421 -8.444353 20.407975 -1.823522 -8.691632 16.448355 -0.401235 0.000000 0.000000 0.000000 -3.824940 -47.191039 0.231366 5.357848 35.117117 3.532519 3.811464 -6.949431 1.167220 0.000000 0.000000 0.000000 
690.572021 -178.822998 1031.782959 0.727737 12.042926 -1.265726 4.766472 2.602189 -2.076739 4.564121 -3.976604 0.376282 4.428921 -0.414310 -0.647304 -0.333554 4.831690 1.626154 0.000000 0.000000 0.000000 10.614667 -10.456828 -3.840936 -4.537523 -6.357481 -16.912765 -0.630273 -42.436754 2.199747 0.000000 0.000000 0.000000 -1.301041 7.271675 6.008429 6.678203 5.151498 18.990189 3.295473 -10.969751 -6.300291 0.000000 0.000000 0.000000 -6.526545 6.110783 -0.930683 -8.511694 25.413075 -2.338992 -8.785560 17.582370 -0.188246 0.000000 0.000000 0.000000 -4.357581 -46.230719 0.295275 4.495973 37.819737 4.294997 3.251633 -5.210165 1.039572 0.000000 0.000000 0.000000 
721.359009 -178.386993 1027.901978 0.790445 11.339211 -1.130451 4.613227 3.002991 -2.426752 4.418176 -3.953030 0.271865 4.301431 -0.423305 -0.538875 -0.321301 4.509859 1.510483 0.000000 0.000000 0.000000 10.669467 -9.934651 -3.673332 -4.571529 -5.894503 -15.656402 -0.719654 -42.834768 2.077841 0.000000 0.000000 0.000000 -1.260739 7.317149 5.344221 6.460320 5.118005 18.714604 3.239198 -9.347938 -5.711477 0.000000 0.000000 0.000000 -5.710116 4.626559 -1.454332 -8.124106 32.013787 -2.469220 -8.221773 20.411716 0.761898 0.000000 0.000000 0.000000 -4.650588 -45.373061 -0.081471 4.420629 40.857285 4.588115 3.200053 -5.253368 1.016714 0.000000 0.000000 0.000000 
751.046021 -177.949005 1025.053955 0.862141 10.508608 -0.427053 4.433303 3.769344 -3.588640 4.268002 -4.042976 0.394917 4.142292 -0.363308 -0.436283 -0.318061 4.198160 1.420143 0.000000 0.000000 0.000000 10.678925 -9.257442 -3.465875 -4.678240 -5.283890 -14.122530 -0.887527 -43.234646 1.858698 0.000000 0.000000 0.000000 -1.399132 7.119272 4.479036 6.079657 4.790846 18.403039 3.196643 -7.164858 -4.797692 0.000000 0.000000 0.000000 -3.965328 2.478182 -2.466810 -7.098212 39.782725 -1.628539 -6.366534 25.551828 2.969856 0.000000 0.000000 0.000000 -4.717048 -44.572073 -0.884715 5.041707 44.792543 4.691876 3.789779 -6.415958 1.186877 0.000000 0.000000 0.000000 
779.947998 -177.675995 1023.672974 0.614863 9.784584 0.380888 4.324529 4.456463 -5.116208 4.189336 -4.149274 0.757347 4.024289 -0.313747 -0.346859 -0.316956 3.868594 1.330501 0.000000 0.000000 0.000000 10.609431 -8.476390 -3.280390 -4.714375 -4.594806 -12.469368 -1.015155 -43.257381 1.700876 0.000000 0.000000 0.000000 -1.501116 6.759161 3.641964 5.660363 4.370008 17.855552 3.167992 -4.859154 -3.762891 0.000000 0.000000 0.000000 -2.193237 0.203685 -3.905899 -6.159450 46.400282 -0.063343 -3.862806 29.694078 5.448273 0.000000 0.000000 0.000000 -4.705407 -43.549925 -1.721046 5.785140 48.107742 4.755884 4.608149 -7.361120 1.459507 0.000000 0.000000 0.000000 
